<svg xmlns="http://www.w3.org/2000/svg" xmlns:xlink="http://www.w3.org/1999/xlink" width="500" zoomAndPan="magnify" viewBox="0 0 375 374.999991" height="500" preserveAspectRatio="xMidYMid meet" version="1.0"><defs><g/><clipPath id="edf4ee84e3"><path d="M 139.03125 80.824219 L 235.78125 80.824219 L 235.78125 230.824219 L 139.03125 230.824219 Z M 139.03125 80.824219 " clip-rule="nonzero"/></clipPath></defs><g clip-path="url(#edf4ee84e3)"><path fill="#db2626" d="M 235.957031 128.546875 C 235.957031 102.296875 214.21875 80.945312 187.496094 80.945312 C 165.804688 80.945312 147.398438 95.011719 141.234375 114.34375 C 141.207031 114.40625 141.183594 114.472656 141.171875 114.539062 C 139.78125 118.96875 139.03125 123.671875 139.03125 128.546875 L 139.03125 183.09375 C 139.03125 190.871094 140.941406 198.21875 144.324219 204.707031 C 144.351562 204.800781 144.398438 204.882812 144.457031 204.957031 C 145.621094 207.15625 146.953125 209.257812 148.441406 211.242188 C 148.488281 211.351562 148.5625 211.449219 148.652344 211.527344 C 157.496094 223.152344 171.617188 230.691406 187.496094 230.691406 C 196.597656 230.691406 205.121094 228.210938 212.40625 223.90625 C 212.574219 223.871094 212.71875 223.777344 212.828125 223.652344 C 215.765625 221.875 218.496094 219.800781 220.976562 217.472656 C 221.085938 217.410156 221.175781 217.324219 221.242188 217.21875 C 223.0625 215.480469 224.746094 213.605469 226.273438 211.609375 C 226.457031 211.503906 226.59375 211.328125 226.640625 211.117188 C 232.496094 203.25 235.957031 193.5625 235.957031 183.09375 Z M 149.628906 200.03125 L 180.246094 200.03125 L 180.246094 203.714844 L 149.628906 203.714844 Z M 152.339844 196.035156 L 155.835938 196.035156 L 155.835938 196.808594 L 152.339844 196.808594 Z M 152.324219 172.136719 L 174.710938 172.136719 L 173.8125 180.242188 L 173.746094 180.242188 C 173.324219 180.242188 172.980469 180.585938 172.980469 181.007812 L 172.980469 181.335938 L 152.324219 181.335938 Z M 176.628906 161.917969 L 175.894531 168.550781 C 175.886719 168.5625 175.875 168.570312 175.867188 168.582031 L 174.457031 170.605469 L 156.492188 170.605469 L 156.492188 161.917969 Z M 178.0625 152.597656 L 178.0625 153.515625 L 177.496094 158.613281 L 176.300781 160.324219 C 176.289062 160.34375 176.28125 160.367188 176.273438 160.386719 L 159.625 160.386719 L 159.625 152.597656 Z M 179.371094 144.808594 L 178.894531 149.875 L 178.066406 151.0625 L 162.871094 151.0625 L 162.871094 144.808594 Z M 180.484375 138.347656 L 180.15625 141.878906 C 179.847656 141.957031 179.613281 142.21875 179.582031 142.546875 L 179.511719 143.277344 L 165.378906 143.277344 L 165.378906 138.347656 Z M 181.316406 132.582031 L 181.027344 135.675781 C 180.835938 135.796875 180.703125 136.003906 180.679688 136.246094 L 180.628906 136.8125 L 167.125 136.8125 L 167.125 132.582031 Z M 182.144531 127.902344 L 181.945312 130.070312 C 181.699219 130.183594 181.519531 130.414062 181.496094 130.699219 L 181.460938 131.050781 L 168.882812 131.050781 L 168.882812 127.902344 Z M 203.851562 120.191406 L 203.851562 122.234375 L 191.8125 122.234375 C 191.699219 122.160156 191.558594 122.121094 191.414062 122.121094 L 183.820312 122.121094 C 183.648438 122.121094 183.492188 122.179688 183.363281 122.277344 L 171.457031 122.277344 L 171.457031 120.191406 Z M 206.414062 127.859375 L 206.414062 131.007812 L 193.761719 131.007812 L 193.730469 130.695312 C 193.707031 130.421875 193.539062 130.199219 193.308594 130.085938 L 193.089844 127.859375 Z M 208.167969 132.539062 L 208.167969 136.769531 L 194.59375 136.769531 L 194.539062 136.242188 C 194.519531 136.015625 194.398438 135.824219 194.226562 135.699219 L 193.914062 132.539062 Z M 209.914062 138.304688 L 209.914062 143.234375 L 195.703125 143.234375 L 195.636719 142.542969 C 195.605469 142.230469 195.386719 141.976562 195.097656 141.890625 L 194.742188 138.304688 Z M 212.425781 144.765625 L 212.425781 151.019531 L 197.269531 151.019531 L 196.472656 149.679688 C 196.433594 149.613281 196.382812 149.558594 196.324219 149.503906 L 195.855469 144.765625 Z M 215.667969 152.554688 L 215.667969 160.34375 L 199.058594 160.34375 C 199.054688 160.335938 199.050781 160.332031 199.042969 160.324219 L 197.898438 158.402344 C 197.851562 158.320312 197.785156 158.25 197.710938 158.195312 L 197.050781 152.554688 Z M 218.800781 161.878906 L 218.800781 170.5625 L 200.917969 170.5625 L 199.769531 168.628906 C 199.667969 168.460938 199.511719 168.34375 199.328125 168.289062 L 198.578125 161.878906 Z M 222.972656 172.09375 L 222.972656 181.292969 L 202.273438 181.292969 L 202.273438 181.007812 C 202.273438 180.585938 201.933594 180.242188 201.507812 180.242188 L 201.4375 180.242188 L 200.492188 172.175781 L 200.53125 172.175781 C 200.535156 172.175781 200.535156 172.175781 200.539062 172.175781 C 200.65625 172.175781 200.769531 172.144531 200.871094 172.09375 Z M 156.605469 194.5 L 156.492188 194.5 L 156.492188 182.867188 L 163.390625 182.867188 L 163.390625 194.574219 L 163.382812 194.574219 C 162.960938 194.574219 162.617188 194.917969 162.617188 195.34375 L 162.617188 196.808594 L 157.371094 196.808594 L 157.371094 195.265625 C 157.371094 194.84375 157.027344 194.5 156.605469 194.5 Z M 218.5 194.382812 L 218.492188 194.382812 C 218.070312 194.382812 217.726562 194.726562 217.726562 195.148438 L 217.726562 196.808594 L 213.378906 196.808594 L 213.378906 195.1875 C 213.378906 194.765625 213.035156 194.421875 212.613281 194.421875 L 212.5 194.421875 L 212.5 182.824219 L 218.5 182.824219 Z M 176.25 172.144531 L 198.949219 172.171875 L 199.894531 180.242188 L 190.964844 180.242188 L 190.964844 173.960938 C 190.964844 173.539062 190.621094 173.195312 190.199219 173.195312 L 185.011719 173.195312 C 184.589844 173.195312 184.246094 173.539062 184.246094 173.960938 L 184.246094 180.242188 L 175.355469 180.242188 Z M 178.214844 161.53125 L 196.996094 161.554688 L 197.78125 168.257812 L 190.546875 168.257812 L 190.546875 162.929688 C 190.546875 162.507812 190.203125 162.164062 189.78125 162.164062 L 185.4375 162.164062 C 185.015625 162.164062 184.671875 162.507812 184.671875 162.929688 L 184.671875 168.257812 L 177.472656 168.257812 Z M 188.695312 158.027344 L 186.53125 158.027344 L 186.53125 154.363281 L 188.695312 154.363281 Z M 197.082031 160.023438 L 178.398438 160 L 178.707031 159.558594 L 196.804688 159.558594 Z M 190.226562 158.027344 L 190.226562 153.59375 C 190.226562 153.171875 189.882812 152.828125 189.460938 152.828125 L 185.761719 152.828125 C 185.339844 152.828125 184.996094 153.171875 184.996094 153.59375 L 184.996094 158.027344 L 179.105469 158.027344 L 179.714844 152.519531 L 195.503906 152.539062 L 196.148438 158.027344 Z M 179.988281 150.988281 L 180.089844 150.839844 L 195.378906 150.839844 L 195.476562 151.007812 Z M 188.421875 149.304688 L 186.808594 149.304688 L 186.808594 146.421875 L 188.421875 146.421875 Z M 187.046875 139.699219 L 188.1875 139.699219 L 188.1875 141.980469 L 187.046875 141.980469 Z M 182.957031 131.535156 L 192.273438 131.535156 L 192.671875 135.550781 L 182.578125 135.550781 Z M 190.730469 123.652344 L 190.933594 125.363281 L 184.316406 125.363281 L 184.507812 123.652344 Z M 183.777344 126.894531 L 191.457031 126.894531 L 191.761719 130.003906 L 183.488281 130.003906 Z M 182.140625 137.082031 L 193.082031 137.082031 L 193.574219 142.0625 L 189.71875 142.070312 L 189.71875 138.933594 C 189.71875 138.507812 189.375 138.164062 188.953125 138.164062 L 186.28125 138.164062 C 185.859375 138.164062 185.515625 138.507812 185.515625 138.933594 L 185.515625 142.074219 L 181.675781 142.082031 Z M 181.019531 143.617188 L 194.199219 143.59375 L 194.765625 149.304688 L 189.953125 149.304688 L 189.953125 145.652344 C 189.953125 145.230469 189.609375 144.886719 189.1875 144.886719 L 186.042969 144.886719 C 185.617188 144.886719 185.273438 145.230469 185.273438 145.652344 L 185.273438 149.304688 L 180.488281 149.304688 Z M 189.015625 168.257812 L 186.203125 168.257812 L 186.203125 163.695312 L 189.015625 163.695312 Z M 176.894531 169.789062 L 198.675781 169.789062 L 199.183594 170.640625 L 176.320312 170.613281 Z M 194.128906 185.5 L 181.011719 185.5 C 180.589844 185.5 180.246094 185.84375 180.246094 186.269531 L 180.246094 194.746094 C 180.105469 194.574219 179.894531 194.460938 179.65625 194.460938 L 179.542969 194.460938 L 179.542969 184.199219 L 196.011719 184.199219 L 196.011719 194.5 L 196 194.5 C 195.578125 194.5 195.234375 194.84375 195.234375 195.265625 L 195.234375 196.808594 L 194.898438 196.808594 L 194.898438 186.269531 C 194.898438 185.84375 194.554688 185.5 194.128906 185.5 Z M 178.011719 184.199219 L 178.011719 194.460938 L 176.167969 194.460938 L 176.167969 184.199219 Z M 178.890625 195.996094 L 178.890625 196.78125 L 175.394531 196.78125 L 175.394531 195.996094 Z M 197.542969 194.5 L 197.542969 184.199219 L 199.386719 184.199219 L 199.386719 194.5 Z M 196.769531 196.808594 L 196.769531 196.03125 L 200.265625 196.03125 L 200.265625 196.808594 Z M 189.433594 180.242188 L 185.777344 180.242188 L 185.777344 174.730469 L 189.433594 174.730469 Z M 174.511719 181.773438 L 200.742188 181.773438 L 200.742188 182.664062 L 174.511719 182.664062 Z M 210.96875 182.824219 L 210.96875 194.421875 L 209.125 194.421875 L 209.125 182.824219 Z M 211.847656 196.742188 L 208.351562 196.742188 L 208.351562 195.957031 L 211.847656 195.957031 Z M 207.507812 194.429688 C 207.121094 194.46875 206.816406 194.792969 206.816406 195.1875 L 206.816406 195.308594 C 206.765625 195.414062 206.734375 195.527344 206.734375 195.652344 L 206.734375 196.808594 L 201.796875 196.808594 L 201.796875 195.265625 C 201.796875 194.84375 201.453125 194.5 201.03125 194.5 L 200.917969 194.5 L 200.917969 184.199219 L 201.507812 184.199219 C 201.933594 184.199219 202.273438 183.855469 202.273438 183.429688 L 202.273438 182.824219 L 207.507812 182.824219 Z M 173.746094 184.199219 L 174.636719 184.199219 L 174.636719 194.460938 L 174.625 194.460938 C 174.203125 194.460938 173.859375 194.804688 173.859375 195.230469 L 173.859375 196.808594 L 169.179688 196.808594 L 169.179688 195.34375 C 169.179688 194.917969 168.835938 194.574219 168.414062 194.574219 L 168.300781 194.574219 L 168.300781 182.867188 L 172.980469 182.867188 L 172.980469 183.429688 C 172.980469 183.855469 173.324219 184.199219 173.746094 184.199219 Z M 164.148438 196.808594 L 164.148438 196.109375 L 167.644531 196.109375 L 167.644531 196.808594 Z M 166.769531 182.867188 L 166.769531 194.574219 L 164.925781 194.574219 L 164.925781 182.867188 Z M 181.777344 187.035156 L 193.363281 187.035156 L 193.363281 203.714844 L 181.777344 203.714844 Z M 194.898438 200.03125 L 225.574219 200.03125 L 225.574219 203.714844 L 194.898438 203.714844 Z M 194.898438 198.496094 L 194.898438 198.339844 L 226.691406 198.339844 L 226.691406 198.496094 Z M 222.753906 196.703125 L 219.257812 196.703125 L 219.257812 195.914062 L 222.753906 195.914062 Z M 220.035156 194.382812 L 220.035156 182.824219 L 221.875 182.824219 L 221.875 194.382812 Z M 192.941406 126.324219 L 192.914062 126.054688 C 192.886719 125.78125 192.71875 125.554688 192.484375 125.441406 L 192.289062 123.765625 L 204.539062 123.765625 L 204.539062 126.324219 Z M 170.757812 123.808594 L 182.949219 123.808594 L 182.769531 125.433594 C 182.523438 125.542969 182.34375 125.773438 182.316406 126.058594 L 182.289062 126.367188 L 170.757812 126.367188 Z M 154.960938 182.867188 L 154.960938 194.5 L 153.117188 194.5 L 153.117188 182.867188 Z M 148.511719 198.339844 L 180.246094 198.339844 L 180.246094 198.496094 L 148.511719 198.496094 Z M 148.863281 205.246094 L 228.628906 205.246094 C 227.667969 206.960938 226.597656 208.605469 225.429688 210.179688 L 149.558594 210.179688 C 148.390625 208.605469 147.320312 206.960938 146.359375 205.246094 Z M 220.25 216.042969 L 154.738281 216.042969 C 153.316406 214.683594 151.984375 213.238281 150.75 211.710938 L 224.238281 211.710938 C 223.003906 213.238281 221.671875 214.683594 220.25 216.042969 Z M 211.957031 222.390625 L 163.03125 222.390625 C 160.683594 220.976562 158.46875 219.363281 156.417969 217.578125 L 218.570312 217.578125 C 216.519531 219.363281 214.308594 220.976562 211.957031 222.390625 Z M 209.203125 223.921875 C 202.707031 227.261719 195.324219 229.15625 187.496094 229.15625 C 179.667969 229.15625 172.28125 227.261719 165.785156 223.921875 Z M 234.425781 183.09375 C 234.425781 190.5 232.628906 197.503906 229.449219 203.714844 L 227.109375 203.714844 L 227.109375 200.03125 L 227.457031 200.03125 C 227.882812 200.03125 228.226562 199.6875 228.226562 199.265625 L 228.226562 197.574219 C 228.226562 197.148438 227.882812 196.808594 227.457031 196.808594 L 224.289062 196.808594 L 224.289062 195.148438 C 224.289062 194.726562 223.945312 194.382812 223.519531 194.382812 L 223.410156 194.382812 L 223.410156 182.824219 L 223.738281 182.824219 C 224.164062 182.824219 224.503906 182.484375 224.503906 182.058594 L 224.503906 171.328125 C 224.503906 170.90625 224.164062 170.5625 223.738281 170.5625 L 220.335938 170.5625 L 220.335938 161.109375 C 220.335938 160.6875 219.992188 160.34375 219.570312 160.34375 L 217.203125 160.34375 L 217.203125 151.789062 C 217.203125 151.363281 216.859375 151.019531 216.4375 151.019531 L 213.957031 151.019531 L 213.957031 144 C 213.957031 143.578125 213.613281 143.234375 213.191406 143.234375 L 211.449219 143.234375 L 211.449219 137.539062 C 211.449219 137.113281 211.105469 136.769531 210.683594 136.769531 L 209.703125 136.769531 L 209.703125 131.773438 C 209.703125 131.351562 209.359375 131.007812 208.9375 131.007812 L 207.945312 131.007812 L 207.945312 127.09375 C 207.945312 126.667969 207.601562 126.324219 207.179688 126.324219 L 206.070312 126.324219 L 206.070312 123 C 206.070312 122.605469 205.769531 122.28125 205.382812 122.242188 L 205.382812 119.425781 C 205.382812 119.003906 205.042969 118.660156 204.617188 118.660156 L 202.367188 118.660156 L 202.367188 116.195312 C 202.367188 115.773438 202.023438 115.429688 201.597656 115.429688 C 201.175781 115.429688 200.832031 115.773438 200.832031 116.195312 L 200.832031 118.660156 L 197.710938 118.660156 L 197.710938 116.070312 C 197.710938 115.648438 197.367188 115.304688 196.941406 115.304688 C 196.519531 115.304688 196.175781 115.648438 196.175781 116.070312 L 196.175781 118.660156 L 192.390625 118.660156 L 192.390625 116.089844 C 192.390625 115.664062 192.046875 115.320312 191.621094 115.320312 C 191.199219 115.320312 190.855469 115.664062 190.855469 116.089844 L 190.855469 118.660156 L 188.402344 118.660156 L 188.402344 116.089844 C 188.402344 115.664062 188.058594 115.324219 187.636719 115.324219 C 187.210938 115.324219 186.867188 115.664062 186.867188 116.089844 L 186.867188 118.660156 L 183.5 118.660156 L 183.5 116.171875 C 183.5 115.75 183.15625 115.40625 182.734375 115.40625 C 182.308594 115.40625 181.964844 115.75 181.964844 116.171875 L 181.964844 118.660156 L 178.84375 118.660156 L 178.84375 116.046875 C 178.84375 115.625 178.5 115.28125 178.078125 115.28125 C 177.652344 115.28125 177.308594 115.625 177.308594 116.046875 L 177.308594 118.660156 L 173.523438 118.660156 L 173.523438 116.066406 C 173.523438 115.640625 173.179688 115.300781 172.753906 115.300781 C 172.332031 115.300781 171.988281 115.640625 171.988281 116.066406 L 171.988281 118.660156 L 170.6875 118.660156 C 170.265625 118.660156 169.921875 119.003906 169.921875 119.425781 L 169.921875 122.28125 C 169.53125 122.316406 169.226562 122.640625 169.226562 123.042969 L 169.226562 126.367188 L 168.117188 126.367188 C 167.691406 126.367188 167.347656 126.710938 167.347656 127.132812 L 167.347656 131.050781 L 166.359375 131.050781 C 165.9375 131.050781 165.59375 131.394531 165.59375 131.816406 L 165.59375 136.8125 L 164.613281 136.8125 C 164.191406 136.8125 163.847656 137.15625 163.847656 137.578125 L 163.847656 143.277344 L 162.105469 143.277344 C 161.679688 143.277344 161.339844 143.621094 161.339844 144.042969 L 161.339844 151.0625 L 158.859375 151.0625 C 158.4375 151.0625 158.09375 151.40625 158.09375 151.832031 L 158.09375 160.386719 L 155.726562 160.386719 C 155.304688 160.386719 154.960938 160.730469 154.960938 161.152344 L 154.960938 170.605469 L 151.554688 170.605469 C 151.132812 170.605469 150.789062 170.949219 150.789062 171.371094 L 150.789062 182.101562 C 150.789062 182.523438 151.132812 182.867188 151.554688 182.867188 L 151.582031 182.867188 L 151.582031 194.5 L 151.574219 194.5 C 151.152344 194.5 150.808594 194.84375 150.808594 195.265625 L 150.808594 196.808594 L 147.742188 196.808594 C 147.320312 196.808594 146.976562 197.148438 146.976562 197.574219 L 146.976562 199.265625 C 146.976562 199.6875 147.320312 200.03125 147.742188 200.03125 L 148.09375 200.03125 L 148.09375 203.714844 L 145.539062 203.714844 C 142.359375 197.503906 140.5625 190.5 140.5625 183.09375 L 140.5625 128.546875 C 140.5625 123.992188 141.242188 119.59375 142.503906 115.433594 L 154.996094 115.433594 C 155.417969 115.433594 155.761719 115.09375 155.761719 114.667969 C 155.761719 114.246094 155.417969 113.902344 154.996094 113.902344 L 142.996094 113.902344 C 149.242188 95.65625 166.828125 82.480469 187.496094 82.480469 C 206.203125 82.480469 222.390625 93.28125 229.921875 108.867188 L 218.492188 108.867188 C 218.070312 108.867188 217.726562 109.210938 217.726562 109.632812 C 217.726562 110.058594 218.070312 110.402344 218.492188 110.402344 L 230.628906 110.402344 C 233.070312 115.972656 234.425781 122.105469 234.425781 128.546875 Z M 168.117188 103.957031 C 167.535156 102.503906 166.144531 101.492188 164.546875 101.417969 C 164.046875 99.347656 162.164062 97.820312 159.976562 97.820312 C 157.953125 97.820312 156.167969 99.136719 155.527344 100.996094 C 155.238281 100.945312 154.945312 100.917969 154.648438 100.917969 C 152 100.917969 149.882812 102.992188 149.820312 105.640625 C 149.738281 109.207031 152.226562 110.3125 153.554688 110.398438 C 153.570312 110.398438 153.585938 110.398438 153.601562 110.398438 L 154.589844 110.398438 L 154.648438 110.402344 L 168.433594 110.398438 C 168.449219 110.398438 168.46875 110.398438 168.484375 110.398438 C 169.476562 110.328125 171.371094 109.5625 171.453125 107.15625 C 171.484375 106.328125 171.175781 105.539062 170.59375 104.933594 C 169.953125 104.269531 169.035156 103.910156 168.117188 103.957031 Z M 154.636719 108.867188 C 154.628906 108.867188 154.59375 108.867188 154.585938 108.867188 L 153.632812 108.867188 C 153.386719 108.84375 151.285156 108.570312 151.351562 105.675781 C 151.394531 103.867188 152.839844 102.453125 154.648438 102.453125 C 155.050781 102.453125 155.441406 102.523438 155.816406 102.660156 C 156.035156 102.742188 156.273438 102.71875 156.472656 102.601562 C 156.671875 102.484375 156.808594 102.28125 156.839844 102.054688 C 157.070312 100.511719 158.417969 99.351562 159.976562 99.351562 C 161.621094 99.351562 163.007812 100.632812 163.136719 102.269531 C 163.152344 102.480469 163.253906 102.675781 163.417969 102.804688 C 163.582031 102.9375 163.792969 102.996094 164.003906 102.96875 C 164.125 102.953125 164.242188 102.945312 164.355469 102.945312 C 165.554688 102.945312 166.59375 103.796875 166.828125 104.972656 C 166.867188 105.183594 167 105.367188 167.183594 105.480469 C 167.371094 105.589844 167.59375 105.617188 167.800781 105.554688 C 168.382812 105.378906 169.0625 105.554688 169.488281 106 C 169.78125 106.300781 169.9375 106.695312 169.921875 107.101562 C 169.867188 108.621094 168.679688 108.835938 168.398438 108.867188 L 154.703125 108.867188 C 154.703125 108.867188 154.648438 108.867188 154.644531 108.867188 L 154.648438 109.632812 Z M 209.605469 93.109375 C 209.496094 93.109375 209.390625 93.117188 209.285156 93.125 C 208.796875 92.03125 207.691406 91.273438 206.449219 91.273438 C 205.085938 91.273438 203.902344 92.175781 203.5 93.425781 C 202.601562 93.546875 201.824219 94.109375 201.425781 94.910156 C 200.863281 94.9375 200.328125 95.179688 199.9375 95.585938 C 199.53125 96.003906 199.320312 96.550781 199.339844 97.128906 C 199.398438 98.777344 200.703125 99.300781 201.386719 99.347656 C 201.40625 99.347656 201.421875 99.351562 201.441406 99.351562 L 209.554688 99.351562 C 209.5625 99.351562 209.59375 99.351562 209.605469 99.351562 L 210.222656 99.351562 C 210.242188 99.351562 210.257812 99.347656 210.273438 99.347656 C 211.164062 99.292969 212.832031 98.5625 212.777344 96.214844 C 212.738281 94.472656 211.34375 93.109375 209.605469 93.109375 Z M 209.640625 97.816406 C 209.636719 97.816406 209.617188 97.816406 209.605469 97.816406 C 209.59375 97.816406 209.578125 97.816406 209.566406 97.816406 L 201.480469 97.816406 C 201.253906 97.785156 200.890625 97.648438 200.871094 97.074219 C 200.863281 96.863281 200.972656 96.71875 201.039062 96.648438 C 201.214844 96.46875 201.488281 96.394531 201.722656 96.46875 C 201.929688 96.53125 202.15625 96.503906 202.339844 96.390625 C 202.527344 96.28125 202.65625 96.097656 202.699219 95.882812 C 202.808594 95.335938 203.292969 94.933594 203.855469 94.933594 C 203.910156 94.933594 203.96875 94.941406 204.019531 94.945312 C 204.230469 94.976562 204.441406 94.917969 204.605469 94.785156 C 204.769531 94.652344 204.871094 94.457031 204.886719 94.246094 C 204.953125 93.441406 205.636719 92.808594 206.449219 92.808594 C 207.21875 92.808594 207.882812 93.378906 207.996094 94.140625 C 208.03125 94.371094 208.164062 94.570312 208.363281 94.6875 C 208.5625 94.804688 208.804688 94.828125 209.019531 94.746094 C 209.207031 94.679688 209.402344 94.644531 209.605469 94.644531 C 210.503906 94.644531 211.222656 95.347656 211.242188 96.25 C 211.273438 97.582031 210.457031 97.789062 210.191406 97.816406 Z M 204.425781 102.144531 C 204.425781 102.570312 204.082031 102.910156 203.660156 102.910156 L 190.226562 102.910156 C 189.800781 102.910156 189.460938 102.570312 189.460938 102.144531 C 189.460938 101.722656 189.800781 101.378906 190.226562 101.378906 L 203.660156 101.378906 C 204.082031 101.378906 204.425781 101.722656 204.425781 102.144531 Z M 204.425781 102.144531 " fill-opacity="1" fill-rule="nonzero"/></g><g fill="#db2626" fill-opacity="1"><g transform="translate(106.077669, 269.553762)"><g><path d="M 15.078125 -15.109375 L 13.6875 -10.671875 L 13.609375 -10.671875 C 13.703125 -11.648438 13.597656 -12.441406 13.296875 -13.046875 C 12.992188 -13.648438 12.539062 -14.09375 11.9375 -14.375 C 11.332031 -14.65625 10.628906 -14.796875 9.828125 -14.796875 L 9 -14.796875 L 9 -1.453125 C 9 -0.960938 9.175781 -0.628906 9.53125 -0.453125 C 9.894531 -0.273438 10.410156 -0.160156 11.078125 -0.109375 L 11.078125 0 L 3.96875 0 L 3.96875 -0.109375 C 4.632812 -0.160156 5.144531 -0.273438 5.5 -0.453125 C 5.863281 -0.628906 6.046875 -0.960938 6.046875 -1.453125 L 6.046875 -14.796875 C 4.984375 -14.796875 4.101562 -14.648438 3.40625 -14.359375 C 2.707031 -14.066406 2.117188 -13.625 1.640625 -13.03125 C 1.160156 -12.4375 0.710938 -11.648438 0.296875 -10.671875 L 0.21875 -10.671875 L 0.921875 -15.109375 Z M 15.078125 -15.109375 "/></g></g></g><g fill="#db2626" fill-opacity="1"><g transform="translate(121.360475, 269.553762)"><g><path d="M 13.6875 -4.59375 L 13.78125 -4.5625 L 12.625 0 L 12.5 0.46875 L 11.765625 0 L 0.328125 0 L 0.328125 -0.109375 C 0.773438 -0.265625 1.160156 -0.460938 1.484375 -0.703125 C 1.804688 -0.953125 1.96875 -1.269531 1.96875 -1.65625 L 1.96875 -13.890625 C 1.96875 -14.273438 1.804688 -14.539062 1.484375 -14.6875 C 1.160156 -14.84375 0.773438 -14.945312 0.328125 -15 L 0.328125 -15.109375 L 12.203125 -15.109375 L 13 -11.3125 L 12.90625 -11.265625 C 12.363281 -12.078125 11.867188 -12.738281 11.421875 -13.25 C 10.972656 -13.769531 10.460938 -14.148438 9.890625 -14.390625 C 9.328125 -14.640625 8.578125 -14.765625 7.640625 -14.765625 L 4.921875 -14.765625 L 4.921875 -7.734375 L 6.734375 -7.734375 C 7.628906 -7.734375 8.351562 -7.804688 8.90625 -7.953125 C 9.457031 -8.109375 9.890625 -8.375 10.203125 -8.75 C 10.523438 -9.125 10.773438 -9.640625 10.953125 -10.296875 L 10.953125 -4.84375 C 10.773438 -5.5 10.523438 -6.007812 10.203125 -6.375 C 9.890625 -6.75 9.457031 -7.007812 8.90625 -7.15625 C 8.351562 -7.3125 7.628906 -7.390625 6.734375 -7.390625 L 4.921875 -7.390625 L 4.921875 -0.34375 L 7.78125 -0.34375 C 8.707031 -0.34375 9.5 -0.5 10.15625 -0.8125 C 10.820312 -1.125 11.429688 -1.59375 11.984375 -2.21875 C 12.535156 -2.84375 13.101562 -3.632812 13.6875 -4.59375 Z M 13.6875 -4.59375 "/></g></g></g><g fill="#db2626" fill-opacity="1"><g transform="translate(135.456058, 269.553762)"><g><path d="M 19.203125 -15 C 18.753906 -14.945312 18.367188 -14.84375 18.046875 -14.6875 C 17.722656 -14.539062 17.5625 -14.273438 17.5625 -13.890625 L 17.5625 -1.234375 C 17.5625 -0.835938 17.722656 -0.5625 18.046875 -0.40625 C 18.367188 -0.257812 18.753906 -0.160156 19.203125 -0.109375 L 19.203125 0 L 12.953125 0 L 12.953125 -0.109375 C 13.398438 -0.160156 13.785156 -0.257812 14.109375 -0.40625 C 14.429688 -0.5625 14.59375 -0.835938 14.59375 -1.234375 L 14.59375 -14 L 8.578125 0.234375 L 2.390625 -12.09375 L 2.390625 -3.828125 C 2.390625 -2.847656 2.460938 -2.09375 2.609375 -1.5625 C 2.765625 -1.039062 2.96875 -0.675781 3.21875 -0.46875 C 3.476562 -0.269531 3.75 -0.148438 4.03125 -0.109375 L 4.03125 0 L 0.328125 0 L 0.328125 -0.109375 C 0.628906 -0.148438 0.898438 -0.234375 1.140625 -0.359375 C 1.390625 -0.492188 1.585938 -0.785156 1.734375 -1.234375 C 1.890625 -1.691406 1.96875 -2.410156 1.96875 -3.390625 L 1.96875 -12.953125 C 1.757812 -13.367188 1.53125 -13.742188 1.28125 -14.078125 C 1.03125 -14.421875 0.675781 -14.765625 0.21875 -15.109375 L 4.015625 -15.109375 L 9.765625 -3.65625 L 14.59375 -15.109375 L 19.203125 -15.109375 Z M 19.203125 -15 "/></g></g></g><g fill="#db2626" fill-opacity="1"><g transform="translate(154.969698, 269.553762)"><g><path d="M 8.40625 -15.109375 C 10.332031 -15.109375 11.820312 -14.75 12.875 -14.03125 C 13.9375 -13.3125 14.46875 -12.195312 14.46875 -10.6875 C 14.46875 -9.59375 14.175781 -8.648438 13.59375 -7.859375 C 13.007812 -7.066406 12.1875 -6.457031 11.125 -6.03125 C 10.070312 -5.613281 8.832031 -5.40625 7.40625 -5.40625 L 4.921875 -5.40625 L 4.921875 -1.234375 C 4.921875 -0.835938 5.082031 -0.5625 5.40625 -0.40625 C 5.726562 -0.257812 6.113281 -0.160156 6.5625 -0.109375 L 6.5625 0 L 0.328125 0 L 0.328125 -0.109375 C 0.773438 -0.160156 1.160156 -0.257812 1.484375 -0.40625 C 1.804688 -0.5625 1.96875 -0.835938 1.96875 -1.234375 L 1.96875 -13.890625 C 1.96875 -14.273438 1.804688 -14.539062 1.484375 -14.6875 C 1.160156 -14.84375 0.773438 -14.945312 0.328125 -15 L 0.328125 -15.109375 Z M 8.234375 -5.75 C 8.972656 -5.75 9.585938 -5.847656 10.078125 -6.046875 C 10.566406 -6.242188 10.929688 -6.625 11.171875 -7.1875 C 11.421875 -7.75 11.546875 -8.578125 11.546875 -9.671875 C 11.546875 -10.296875 11.488281 -10.910156 11.375 -11.515625 C 11.257812 -12.117188 11.050781 -12.664062 10.75 -13.15625 C 10.445312 -13.644531 10.007812 -14.035156 9.4375 -14.328125 C 8.875 -14.617188 8.132812 -14.765625 7.21875 -14.765625 L 4.921875 -14.765625 L 4.921875 -6.265625 C 5.472656 -6.109375 6.023438 -5.984375 6.578125 -5.890625 C 7.140625 -5.796875 7.691406 -5.75 8.234375 -5.75 Z M 8.234375 -5.75 "/></g></g></g><g fill="#db2626" fill-opacity="1"><g transform="translate(170.079812, 269.553762)"><g><path d="M 13.21875 -4.453125 L 13.296875 -4.40625 L 12.171875 0 L 12.046875 0.46875 L 11.3125 0 L 0.328125 0 L 0.328125 -0.109375 C 0.773438 -0.265625 1.160156 -0.546875 1.484375 -0.953125 C 1.804688 -1.359375 1.96875 -1.847656 1.96875 -2.421875 L 1.96875 -13.890625 C 1.96875 -14.273438 1.804688 -14.539062 1.484375 -14.6875 C 1.160156 -14.84375 0.773438 -14.945312 0.328125 -15 L 0.328125 -15.109375 L 6.78125 -15.109375 L 6.78125 -15 C 6.226562 -14.945312 5.78125 -14.84375 5.4375 -14.6875 C 5.09375 -14.539062 4.921875 -14.273438 4.921875 -13.890625 L 4.921875 -0.34375 L 6.59375 -0.34375 C 7.5 -0.34375 8.265625 -0.4375 8.890625 -0.625 C 9.523438 -0.8125 10.078125 -1.078125 10.546875 -1.421875 C 11.015625 -1.765625 11.453125 -2.191406 11.859375 -2.703125 C 12.273438 -3.222656 12.726562 -3.804688 13.21875 -4.453125 Z M 13.21875 -4.453125 "/></g></g></g><g fill="#db2626" fill-opacity="1"><g transform="translate(183.700501, 269.553762)"><g><path d="M 13.6875 -4.59375 L 13.78125 -4.5625 L 12.625 0 L 12.5 0.46875 L 11.765625 0 L 0.328125 0 L 0.328125 -0.109375 C 0.773438 -0.265625 1.160156 -0.460938 1.484375 -0.703125 C 1.804688 -0.953125 1.96875 -1.269531 1.96875 -1.65625 L 1.96875 -13.890625 C 1.96875 -14.273438 1.804688 -14.539062 1.484375 -14.6875 C 1.160156 -14.84375 0.773438 -14.945312 0.328125 -15 L 0.328125 -15.109375 L 12.203125 -15.109375 L 13 -11.3125 L 12.90625 -11.265625 C 12.363281 -12.078125 11.867188 -12.738281 11.421875 -13.25 C 10.972656 -13.769531 10.460938 -14.148438 9.890625 -14.390625 C 9.328125 -14.640625 8.578125 -14.765625 7.640625 -14.765625 L 4.921875 -14.765625 L 4.921875 -7.734375 L 6.734375 -7.734375 C 7.628906 -7.734375 8.351562 -7.804688 8.90625 -7.953125 C 9.457031 -8.109375 9.890625 -8.375 10.203125 -8.75 C 10.523438 -9.125 10.773438 -9.640625 10.953125 -10.296875 L 10.953125 -4.84375 C 10.773438 -5.5 10.523438 -6.007812 10.203125 -6.375 C 9.890625 -6.75 9.457031 -7.007812 8.90625 -7.15625 C 8.351562 -7.3125 7.628906 -7.390625 6.734375 -7.390625 L 4.921875 -7.390625 L 4.921875 -0.34375 L 7.78125 -0.34375 C 8.707031 -0.34375 9.5 -0.5 10.15625 -0.8125 C 10.820312 -1.125 11.429688 -1.59375 11.984375 -2.21875 C 12.535156 -2.84375 13.101562 -3.632812 13.6875 -4.59375 Z M 13.6875 -4.59375 "/></g></g></g><g fill="#db2626" fill-opacity="1"><g transform="translate(197.796084, 269.553762)"><g/></g></g><g fill="#db2626" fill-opacity="1"><g transform="translate(202.113265, 269.553762)"><g><path d="M 15.078125 -15.109375 L 13.6875 -10.671875 L 13.609375 -10.671875 C 13.703125 -11.648438 13.597656 -12.441406 13.296875 -13.046875 C 12.992188 -13.648438 12.539062 -14.09375 11.9375 -14.375 C 11.332031 -14.65625 10.628906 -14.796875 9.828125 -14.796875 L 9 -14.796875 L 9 -1.453125 C 9 -0.960938 9.175781 -0.628906 9.53125 -0.453125 C 9.894531 -0.273438 10.410156 -0.160156 11.078125 -0.109375 L 11.078125 0 L 3.96875 0 L 3.96875 -0.109375 C 4.632812 -0.160156 5.144531 -0.273438 5.5 -0.453125 C 5.863281 -0.628906 6.046875 -0.960938 6.046875 -1.453125 L 6.046875 -14.796875 C 4.984375 -14.796875 4.101562 -14.648438 3.40625 -14.359375 C 2.707031 -14.066406 2.117188 -13.625 1.640625 -13.03125 C 1.160156 -12.4375 0.710938 -11.648438 0.296875 -10.671875 L 0.21875 -10.671875 L 0.921875 -15.109375 Z M 15.078125 -15.109375 "/></g></g></g><g fill="#db2626" fill-opacity="1"><g transform="translate(217.39607, 269.553762)"><g><path d="M 12.953125 -2.84375 C 13.390625 -2.269531 13.773438 -1.8125 14.109375 -1.46875 C 14.453125 -1.132812 14.785156 -0.863281 15.109375 -0.65625 C 15.441406 -0.445312 15.796875 -0.25 16.171875 -0.0625 L 16.171875 0 L 11.515625 0 L 11.515625 -0.359375 L 7.453125 -6.09375 L 4.921875 -6.09375 L 4.921875 -1.234375 C 4.921875 -0.835938 5.082031 -0.5625 5.40625 -0.40625 C 5.726562 -0.257812 6.113281 -0.160156 6.5625 -0.109375 L 6.5625 0 L 0.328125 0 L 0.328125 -0.109375 C 0.773438 -0.160156 1.160156 -0.257812 1.484375 -0.40625 C 1.804688 -0.5625 1.96875 -0.835938 1.96875 -1.234375 L 1.96875 -13.890625 C 1.96875 -14.273438 1.804688 -14.539062 1.484375 -14.6875 C 1.160156 -14.84375 0.773438 -14.945312 0.328125 -15 L 0.328125 -15.109375 L 8.46875 -15.109375 C 10.394531 -15.109375 11.890625 -14.78125 12.953125 -14.125 C 14.015625 -13.476562 14.546875 -12.445312 14.546875 -11.03125 C 14.546875 -9.957031 14.171875 -9.007812 13.421875 -8.1875 C 12.679688 -7.375 11.65625 -6.789062 10.34375 -6.4375 Z M 4.921875 -14.734375 L 4.921875 -6.9375 C 6.078125 -6.601562 7.222656 -6.4375 8.359375 -6.4375 C 9.085938 -6.4375 9.691406 -6.535156 10.171875 -6.734375 C 10.660156 -6.941406 11.023438 -7.3125 11.265625 -7.84375 C 11.515625 -8.382812 11.640625 -9.15625 11.640625 -10.15625 C 11.640625 -10.726562 11.582031 -11.28125 11.46875 -11.8125 C 11.363281 -12.351562 11.160156 -12.84375 10.859375 -13.28125 C 10.554688 -13.726562 10.117188 -14.082031 9.546875 -14.34375 C 8.972656 -14.601562 8.222656 -14.734375 7.296875 -14.734375 Z M 4.921875 -14.734375 "/></g></g></g><g fill="#db2626" fill-opacity="1"><g transform="translate(233.348034, 269.553762)"><g><path d="M 0.328125 0 L 0.328125 -0.109375 C 0.773438 -0.160156 1.160156 -0.257812 1.484375 -0.40625 C 1.804688 -0.5625 1.96875 -0.835938 1.96875 -1.234375 L 1.96875 -13.890625 C 1.96875 -14.273438 1.804688 -14.539062 1.484375 -14.6875 C 1.160156 -14.84375 0.773438 -14.945312 0.328125 -15 L 0.328125 -15.109375 L 6.5625 -15.109375 L 6.5625 -15 C 6.113281 -14.945312 5.726562 -14.84375 5.40625 -14.6875 C 5.082031 -14.539062 4.921875 -14.273438 4.921875 -13.890625 L 4.921875 -1.234375 C 4.921875 -0.835938 5.082031 -0.5625 5.40625 -0.40625 C 5.726562 -0.257812 6.113281 -0.160156 6.5625 -0.109375 L 6.5625 0 Z M 0.328125 0 "/></g></g></g><g fill="#db2626" fill-opacity="1"><g transform="translate(240.233932, 269.553762)"><g><path d="M 8.40625 -15.109375 C 10.332031 -15.109375 11.820312 -14.75 12.875 -14.03125 C 13.9375 -13.3125 14.46875 -12.195312 14.46875 -10.6875 C 14.46875 -9.59375 14.175781 -8.648438 13.59375 -7.859375 C 13.007812 -7.066406 12.1875 -6.457031 11.125 -6.03125 C 10.070312 -5.613281 8.832031 -5.40625 7.40625 -5.40625 L 4.921875 -5.40625 L 4.921875 -1.234375 C 4.921875 -0.835938 5.082031 -0.5625 5.40625 -0.40625 C 5.726562 -0.257812 6.113281 -0.160156 6.5625 -0.109375 L 6.5625 0 L 0.328125 0 L 0.328125 -0.109375 C 0.773438 -0.160156 1.160156 -0.257812 1.484375 -0.40625 C 1.804688 -0.5625 1.96875 -0.835938 1.96875 -1.234375 L 1.96875 -13.890625 C 1.96875 -14.273438 1.804688 -14.539062 1.484375 -14.6875 C 1.160156 -14.84375 0.773438 -14.945312 0.328125 -15 L 0.328125 -15.109375 Z M 8.234375 -5.75 C 8.972656 -5.75 9.585938 -5.847656 10.078125 -6.046875 C 10.566406 -6.242188 10.929688 -6.625 11.171875 -7.1875 C 11.421875 -7.75 11.546875 -8.578125 11.546875 -9.671875 C 11.546875 -10.296875 11.488281 -10.910156 11.375 -11.515625 C 11.257812 -12.117188 11.050781 -12.664062 10.75 -13.15625 C 10.445312 -13.644531 10.007812 -14.035156 9.4375 -14.328125 C 8.875 -14.617188 8.132812 -14.765625 7.21875 -14.765625 L 4.921875 -14.765625 L 4.921875 -6.265625 C 5.472656 -6.109375 6.023438 -5.984375 6.578125 -5.890625 C 7.140625 -5.796875 7.691406 -5.75 8.234375 -5.75 Z M 8.234375 -5.75 "/></g></g></g><g fill="#db2626" fill-opacity="1"><g transform="translate(255.344046, 269.553762)"><g><path d="M 7.59375 -9.03125 C 8.664062 -8.78125 9.535156 -8.472656 10.203125 -8.109375 C 10.867188 -7.753906 11.378906 -7.359375 11.734375 -6.921875 C 12.097656 -6.492188 12.347656 -6.0625 12.484375 -5.625 C 12.628906 -5.1875 12.703125 -4.765625 12.703125 -4.359375 C 12.703125 -3.484375 12.460938 -2.691406 11.984375 -1.984375 C 11.503906 -1.273438 10.816406 -0.71875 9.921875 -0.3125 C 9.035156 0.09375 7.957031 0.296875 6.6875 0.296875 C 5.382812 0.296875 4.234375 0.0976562 3.234375 -0.296875 C 2.242188 -0.691406 1.453125 -1.171875 0.859375 -1.734375 L 2.84375 -4.875 C 2.78125 -4.125 2.875 -3.453125 3.125 -2.859375 C 3.375 -2.265625 3.726562 -1.757812 4.1875 -1.34375 C 4.644531 -0.925781 5.171875 -0.601562 5.765625 -0.375 C 6.359375 -0.15625 6.957031 -0.046875 7.5625 -0.046875 C 8.195312 -0.046875 8.710938 -0.144531 9.109375 -0.34375 C 9.503906 -0.539062 9.804688 -0.796875 10.015625 -1.109375 C 10.234375 -1.421875 10.382812 -1.75 10.46875 -2.09375 C 10.5625 -2.4375 10.609375 -2.753906 10.609375 -3.046875 C 10.609375 -3.691406 10.453125 -4.195312 10.140625 -4.5625 C 9.828125 -4.9375 9.367188 -5.238281 8.765625 -5.46875 C 8.171875 -5.695312 7.445312 -5.910156 6.59375 -6.109375 C 5.1875 -6.441406 4.097656 -6.878906 3.328125 -7.421875 C 2.566406 -7.972656 2.03125 -8.570312 1.71875 -9.21875 C 1.40625 -9.863281 1.25 -10.5 1.25 -11.125 C 1.25 -12.007812 1.484375 -12.769531 1.953125 -13.40625 C 2.429688 -14.050781 3.097656 -14.546875 3.953125 -14.890625 C 4.816406 -15.242188 5.832031 -15.421875 7 -15.421875 C 8.25 -15.421875 9.320312 -15.226562 10.21875 -14.84375 C 11.125 -14.46875 11.863281 -14.003906 12.4375 -13.453125 L 10.390625 -10.296875 C 10.484375 -11.035156 10.421875 -11.695312 10.203125 -12.28125 C 9.984375 -12.875 9.65625 -13.378906 9.21875 -13.796875 C 8.789062 -14.210938 8.289062 -14.53125 7.71875 -14.75 C 7.144531 -14.976562 6.566406 -15.09375 5.984375 -15.09375 C 5.304688 -15.09375 4.773438 -14.957031 4.390625 -14.6875 C 4.015625 -14.425781 3.753906 -14.09375 3.609375 -13.6875 C 3.460938 -13.28125 3.390625 -12.878906 3.390625 -12.484375 C 3.390625 -11.734375 3.582031 -11.132812 3.96875 -10.6875 C 4.363281 -10.238281 4.878906 -9.890625 5.515625 -9.640625 C 6.160156 -9.398438 6.851562 -9.195312 7.59375 -9.03125 Z M 7.59375 -9.03125 "/></g></g></g><g fill="#3353b2" fill-opacity="1"><g transform="translate(114.042887, 291.874404)"><g><path d="M 0.265625 -7.1875 L 1.6875 -7.1875 L 3.484375 -2.078125 L 5.3125 -7.1875 L 6.71875 -7.1875 L 4.125 0 L 2.8125 0 Z M 0.265625 -7.1875 "/></g></g></g><g fill="#3353b2" fill-opacity="1"><g transform="translate(126.500111, 291.874404)"><g><path d="M 0.8125 -7.1875 L 2.1875 -7.1875 L 2.1875 0 L 0.8125 0 Z M 0.8125 -7.1875 "/></g></g></g><g fill="#3353b2" fill-opacity="1"><g transform="translate(134.968909, 291.874404)"><g><path d="M 2.609375 0.1875 C 2.085938 0.1875 1.640625 0.0546875 1.265625 -0.203125 C 0.890625 -0.460938 0.566406 -0.851562 0.296875 -1.375 L 1.453125 -2.0625 C 1.617188 -1.75 1.796875 -1.515625 1.984375 -1.359375 C 2.179688 -1.203125 2.398438 -1.125 2.640625 -1.125 C 2.796875 -1.125 2.9375 -1.15625 3.0625 -1.21875 C 3.1875 -1.28125 3.285156 -1.363281 3.359375 -1.46875 C 3.429688 -1.570312 3.46875 -1.679688 3.46875 -1.796875 C 3.46875 -1.921875 3.441406 -2.035156 3.390625 -2.140625 C 3.335938 -2.242188 3.265625 -2.34375 3.171875 -2.4375 C 3.085938 -2.53125 2.953125 -2.65625 2.765625 -2.8125 C 2.210938 -3.269531 1.800781 -3.628906 1.53125 -3.890625 C 1.257812 -4.148438 1.039062 -4.414062 0.875 -4.6875 C 0.71875 -4.957031 0.640625 -5.242188 0.640625 -5.546875 C 0.640625 -5.878906 0.726562 -6.179688 0.90625 -6.453125 C 1.082031 -6.734375 1.320312 -6.953125 1.625 -7.109375 C 1.925781 -7.273438 2.253906 -7.359375 2.609375 -7.359375 C 3.023438 -7.359375 3.394531 -7.257812 3.71875 -7.0625 C 4.039062 -6.863281 4.363281 -6.578125 4.6875 -6.203125 L 3.703125 -5.375 C 3.503906 -5.59375 3.316406 -5.757812 3.140625 -5.875 C 2.960938 -5.988281 2.78125 -6.046875 2.59375 -6.046875 C 2.40625 -6.046875 2.253906 -6 2.140625 -5.90625 C 2.035156 -5.8125 1.984375 -5.691406 1.984375 -5.546875 C 1.984375 -5.441406 2.015625 -5.335938 2.078125 -5.234375 C 2.148438 -5.140625 2.257812 -5.023438 2.40625 -4.890625 C 2.5625 -4.753906 2.8125 -4.550781 3.15625 -4.28125 C 3.5625 -3.957031 3.867188 -3.6875 4.078125 -3.46875 C 4.296875 -3.257812 4.472656 -3.019531 4.609375 -2.75 C 4.742188 -2.488281 4.8125 -2.191406 4.8125 -1.859375 C 4.8125 -1.460938 4.71875 -1.109375 4.53125 -0.796875 C 4.34375 -0.492188 4.082031 -0.253906 3.75 -0.078125 C 3.414062 0.0976562 3.035156 0.1875 2.609375 0.1875 Z M 2.609375 0.1875 "/></g></g></g><g fill="#3353b2" fill-opacity="1"><g transform="translate(145.626845, 291.874404)"><g><path d="M 0.8125 -7.1875 L 2.1875 -7.1875 L 2.1875 0 L 0.8125 0 Z M 0.8125 -7.1875 "/></g></g></g><g fill="#3353b2" fill-opacity="1"><g transform="translate(154.095644, 291.874404)"><g><path d="M 1.390625 -5.84375 L 0.109375 -5.84375 L 0.109375 -7.1875 L 4.078125 -7.1875 L 4.078125 -5.84375 L 2.765625 -5.84375 L 2.765625 0 L 1.390625 0 Z M 1.390625 -5.84375 "/></g></g></g><g fill="#3353b2" fill-opacity="1"><g transform="translate(163.753976, 291.874404)"><g><path d="M 0.8125 -7.1875 L 2.1875 -7.1875 L 2.1875 0 L 0.8125 0 Z M 0.8125 -7.1875 "/></g></g></g><g fill="#3353b2" fill-opacity="1"><g transform="translate(172.222775, 291.874404)"><g><path d="M 5.203125 -7.1875 L 6.578125 -7.1875 L 6.578125 0 L 5.265625 0 L 2.1875 -4.703125 L 2.1875 0 L 0.8125 0 L 0.8125 -7.1875 L 2.125 -7.1875 L 5.203125 -2.46875 Z M 5.203125 -7.1875 "/></g></g></g><g fill="#3353b2" fill-opacity="1"><g transform="translate(185.079845, 291.874404)"><g><path d="M 7.953125 -3.65625 L 7.953125 -3.640625 C 7.953125 -2.867188 7.804688 -2.195312 7.515625 -1.625 C 7.222656 -1.050781 6.804688 -0.601562 6.265625 -0.28125 C 5.722656 0.03125 5.097656 0.1875 4.390625 0.1875 C 3.617188 0.1875 2.9375 0.015625 2.34375 -0.328125 C 1.75 -0.679688 1.289062 -1.144531 0.96875 -1.71875 C 0.65625 -2.300781 0.5 -2.9375 0.5 -3.625 C 0.5 -4.300781 0.660156 -4.921875 0.984375 -5.484375 C 1.316406 -6.054688 1.773438 -6.507812 2.359375 -6.84375 C 2.941406 -7.175781 3.601562 -7.34375 4.34375 -7.34375 C 5.03125 -7.34375 5.617188 -7.234375 6.109375 -7.015625 C 6.597656 -6.796875 7.046875 -6.460938 7.453125 -6.015625 L 6.484375 -5.0625 C 6.171875 -5.382812 5.84375 -5.628906 5.5 -5.796875 C 5.15625 -5.960938 4.773438 -6.046875 4.359375 -6.046875 C 3.890625 -6.046875 3.460938 -5.929688 3.078125 -5.703125 C 2.703125 -5.484375 2.40625 -5.1875 2.1875 -4.8125 C 1.976562 -4.445312 1.875 -4.046875 1.875 -3.609375 C 1.875 -3.160156 1.988281 -2.742188 2.21875 -2.359375 C 2.445312 -1.984375 2.753906 -1.679688 3.140625 -1.453125 C 3.535156 -1.234375 3.972656 -1.125 4.453125 -1.125 C 4.921875 -1.125 5.316406 -1.222656 5.640625 -1.421875 C 5.960938 -1.628906 6.222656 -1.9375 6.421875 -2.34375 L 4.34375 -2.34375 L 4.34375 -3.65625 Z M 7.953125 -3.65625 "/></g></g></g><g fill="#3353b2" fill-opacity="1"><g transform="translate(198.936522, 291.874404)"><g/></g></g><g fill="#3353b2" fill-opacity="1"><g transform="translate(207.195402, 291.874404)"><g><path d="M 2.65625 -7.1875 C 3.425781 -7.1875 4.023438 -7.007812 4.453125 -6.65625 C 4.878906 -6.300781 5.09375 -5.78125 5.09375 -5.09375 C 5.09375 -4.632812 4.976562 -4.242188 4.75 -3.921875 C 4.519531 -3.597656 4.175781 -3.351562 3.71875 -3.1875 L 5.421875 0 L 3.9375 0 L 2.3125 -3.046875 L 2.1875 -3.046875 L 2.1875 0 L 0.8125 0 L 0.8125 -7.1875 Z M 2.8125 -4.375 C 3.132812 -4.375 3.375 -4.429688 3.53125 -4.546875 C 3.6875 -4.671875 3.765625 -4.859375 3.765625 -5.109375 C 3.765625 -5.347656 3.679688 -5.53125 3.515625 -5.65625 C 3.347656 -5.78125 3.101562 -5.84375 2.78125 -5.84375 L 2.1875 -5.84375 L 2.1875 -4.375 Z M 2.8125 -4.375 "/></g></g></g><g fill="#3353b2" fill-opacity="1"><g transform="translate(218.363136, 291.874404)"><g><path d="M 4.234375 0.171875 C 3.535156 0.171875 2.894531 0.00390625 2.3125 -0.328125 C 1.738281 -0.671875 1.285156 -1.128906 0.953125 -1.703125 C 0.628906 -2.273438 0.46875 -2.90625 0.46875 -3.59375 C 0.46875 -4.289062 0.632812 -4.925781 0.96875 -5.5 C 1.3125 -6.082031 1.769531 -6.535156 2.34375 -6.859375 C 2.914062 -7.191406 3.535156 -7.359375 4.203125 -7.359375 C 4.867188 -7.359375 5.484375 -7.191406 6.046875 -6.859375 C 6.617188 -6.535156 7.078125 -6.082031 7.421875 -5.5 C 7.765625 -4.925781 7.9375 -4.28125 7.9375 -3.5625 C 7.9375 -2.875 7.769531 -2.242188 7.4375 -1.671875 C 7.113281 -1.097656 6.664062 -0.644531 6.09375 -0.3125 C 5.53125 0.0078125 4.910156 0.171875 4.234375 0.171875 Z M 4.21875 -1.140625 C 4.644531 -1.140625 5.035156 -1.25 5.390625 -1.46875 C 5.753906 -1.6875 6.039062 -1.976562 6.25 -2.34375 C 6.457031 -2.71875 6.5625 -3.128906 6.5625 -3.578125 C 6.5625 -4.015625 6.457031 -4.421875 6.25 -4.796875 C 6.050781 -5.179688 5.769531 -5.484375 5.40625 -5.703125 C 5.050781 -5.929688 4.648438 -6.046875 4.203125 -6.046875 C 3.773438 -6.046875 3.378906 -5.941406 3.015625 -5.734375 C 2.660156 -5.523438 2.375 -5.234375 2.15625 -4.859375 C 1.945312 -4.484375 1.84375 -4.050781 1.84375 -3.5625 C 1.84375 -3.09375 1.953125 -2.671875 2.171875 -2.296875 C 2.390625 -1.929688 2.675781 -1.644531 3.03125 -1.4375 C 3.394531 -1.238281 3.789062 -1.140625 4.21875 -1.140625 Z M 4.21875 -1.140625 "/></g></g></g><g fill="#3353b2" fill-opacity="1"><g transform="translate(232.219813, 291.874404)"><g><path d="M 4.234375 0.171875 C 3.535156 0.171875 2.894531 0.00390625 2.3125 -0.328125 C 1.738281 -0.671875 1.285156 -1.128906 0.953125 -1.703125 C 0.628906 -2.273438 0.46875 -2.90625 0.46875 -3.59375 C 0.46875 -4.289062 0.632812 -4.925781 0.96875 -5.5 C 1.3125 -6.082031 1.769531 -6.535156 2.34375 -6.859375 C 2.914062 -7.191406 3.535156 -7.359375 4.203125 -7.359375 C 4.867188 -7.359375 5.484375 -7.191406 6.046875 -6.859375 C 6.617188 -6.535156 7.078125 -6.082031 7.421875 -5.5 C 7.765625 -4.925781 7.9375 -4.28125 7.9375 -3.5625 C 7.9375 -2.875 7.769531 -2.242188 7.4375 -1.671875 C 7.113281 -1.097656 6.664062 -0.644531 6.09375 -0.3125 C 5.53125 0.0078125 4.910156 0.171875 4.234375 0.171875 Z M 4.21875 -1.140625 C 4.644531 -1.140625 5.035156 -1.25 5.390625 -1.46875 C 5.753906 -1.6875 6.039062 -1.976562 6.25 -2.34375 C 6.457031 -2.71875 6.5625 -3.128906 6.5625 -3.578125 C 6.5625 -4.015625 6.457031 -4.421875 6.25 -4.796875 C 6.050781 -5.179688 5.769531 -5.484375 5.40625 -5.703125 C 5.050781 -5.929688 4.648438 -6.046875 4.203125 -6.046875 C 3.773438 -6.046875 3.378906 -5.941406 3.015625 -5.734375 C 2.660156 -5.523438 2.375 -5.234375 2.15625 -4.859375 C 1.945312 -4.484375 1.84375 -4.050781 1.84375 -3.5625 C 1.84375 -3.09375 1.953125 -2.671875 2.171875 -2.296875 C 2.390625 -1.929688 2.675781 -1.644531 3.03125 -1.4375 C 3.394531 -1.238281 3.789062 -1.140625 4.21875 -1.140625 Z M 4.21875 -1.140625 "/></g></g></g><g fill="#3353b2" fill-opacity="1"><g transform="translate(246.076491, 291.874404)"><g><path d="M 1.390625 -5.84375 L 0.109375 -5.84375 L 0.109375 -7.1875 L 4.078125 -7.1875 L 4.078125 -5.84375 L 2.765625 -5.84375 L 2.765625 0 L 1.390625 0 Z M 1.390625 -5.84375 "/></g></g></g><g fill="#3353b2" fill-opacity="1"><g transform="translate(255.734823, 291.874404)"><g><path d="M 2.609375 0.1875 C 2.085938 0.1875 1.640625 0.0546875 1.265625 -0.203125 C 0.890625 -0.460938 0.566406 -0.851562 0.296875 -1.375 L 1.453125 -2.0625 C 1.617188 -1.75 1.796875 -1.515625 1.984375 -1.359375 C 2.179688 -1.203125 2.398438 -1.125 2.640625 -1.125 C 2.796875 -1.125 2.9375 -1.15625 3.0625 -1.21875 C 3.1875 -1.28125 3.285156 -1.363281 3.359375 -1.46875 C 3.429688 -1.570312 3.46875 -1.679688 3.46875 -1.796875 C 3.46875 -1.921875 3.441406 -2.035156 3.390625 -2.140625 C 3.335938 -2.242188 3.265625 -2.34375 3.171875 -2.4375 C 3.085938 -2.53125 2.953125 -2.65625 2.765625 -2.8125 C 2.210938 -3.269531 1.800781 -3.628906 1.53125 -3.890625 C 1.257812 -4.148438 1.039062 -4.414062 0.875 -4.6875 C 0.71875 -4.957031 0.640625 -5.242188 0.640625 -5.546875 C 0.640625 -5.878906 0.726562 -6.179688 0.90625 -6.453125 C 1.082031 -6.734375 1.320312 -6.953125 1.625 -7.109375 C 1.925781 -7.273438 2.253906 -7.359375 2.609375 -7.359375 C 3.023438 -7.359375 3.394531 -7.257812 3.71875 -7.0625 C 4.039062 -6.863281 4.363281 -6.578125 4.6875 -6.203125 L 3.703125 -5.375 C 3.503906 -5.59375 3.316406 -5.757812 3.140625 -5.875 C 2.960938 -5.988281 2.78125 -6.046875 2.59375 -6.046875 C 2.40625 -6.046875 2.253906 -6 2.140625 -5.90625 C 2.035156 -5.8125 1.984375 -5.691406 1.984375 -5.546875 C 1.984375 -5.441406 2.015625 -5.335938 2.078125 -5.234375 C 2.148438 -5.140625 2.257812 -5.023438 2.40625 -4.890625 C 2.5625 -4.753906 2.8125 -4.550781 3.15625 -4.28125 C 3.5625 -3.957031 3.867188 -3.6875 4.078125 -3.46875 C 4.296875 -3.257812 4.472656 -3.019531 4.609375 -2.75 C 4.742188 -2.488281 4.8125 -2.191406 4.8125 -1.859375 C 4.8125 -1.460938 4.71875 -1.109375 4.53125 -0.796875 C 4.34375 -0.492188 4.082031 -0.253906 3.75 -0.078125 C 3.414062 0.0976562 3.035156 0.1875 2.609375 0.1875 Z M 2.609375 0.1875 "/></g></g></g></svg>